<?xml version="1.0" encoding="UTF-8"?><svg xmlns="http://www.w3.org/2000/svg" xmlns:xlink="http://www.w3.org/1999/xlink" width="375pt" zoomAndPan="magnify" viewBox="0 0 375 374.999991" height="374.999991pt" preserveAspectRatio="xMidYMid meet" version="1.2"><defs><g/><clipPath xml:id="clip1" id="clip1"><path d="M 89 147.980469 L 131 147.980469 L 131 177 L 89 177 Z M 89 147.980469 "/></clipPath><clipPath xml:id="clip2" id="clip2"><path d="M 130 174 L 150.578125 174 L 150.578125 221 L 130 221 Z M 130 174 "/></clipPath><clipPath xml:id="clip3" id="clip3"><path d="M 71.828125 187 L 113 187 L 113 223 L 71.828125 223 Z M 71.828125 187 "/></clipPath><clipPath xml:id="clip4" id="clip4"><path d="M 71.828125 153 L 92 153 L 92 201 L 71.828125 201 Z M 71.828125 153 "/></clipPath><clipPath xml:id="clip5" id="clip5"><path d="M 92 198 L 133 198 L 133 226.730469 L 92 226.730469 Z M 92 198 "/></clipPath><clipPath xml:id="clip6" id="clip6"><path d="M 110 152 L 150.578125 152 L 150.578125 188 L 110 188 Z M 110 152 "/></clipPath><clipPath xml:id="clip7" id="clip7"><path d="M 90 164 L 132 164 L 132 211 L 90 211 Z M 90 164 "/></clipPath><clipPath xml:id="clip8" id="clip8"><path d="M 100.738281 158.621094 L 141.425781 181.132812 L 121.820312 216.570312 L 81.132812 194.058594 Z M 100.738281 158.621094 "/></clipPath><clipPath xml:id="clip9" id="clip9"><path d="M 100.738281 158.621094 L 141.425781 181.132812 L 121.820312 216.570312 L 81.132812 194.058594 Z M 100.738281 158.621094 "/></clipPath><clipPath xml:id="clip10" id="clip10"><path d="M 92 165 L 131 165 L 131 210 L 92 210 Z M 92 165 "/></clipPath><clipPath xml:id="clip11" id="clip11"><path d="M 101.332031 160.246094 L 140.050781 181.664062 L 121.535156 215.136719 L 82.816406 193.714844 Z M 101.332031 160.246094 "/></clipPath><clipPath xml:id="clip12" id="clip12"><path d="M 101.332031 160.246094 L 140.050781 181.664062 L 121.535156 215.136719 L 82.816406 193.714844 Z M 101.332031 160.246094 "/></clipPath><clipPath xml:id="clip13" id="clip13"><path d="M 89 146.585938 L 132 146.585938 L 132 177 L 89 177 Z M 89 146.585938 "/></clipPath><clipPath xml:id="clip14" id="clip14"><path d="M 131 174 L 152.183594 174 L 152.183594 223 L 131 223 Z M 131 174 "/></clipPath><clipPath xml:id="clip15" id="clip15"><path d="M 70.433594 187 L 113 187 L 113 224 L 70.433594 224 Z M 70.433594 187 "/></clipPath><clipPath xml:id="clip16" id="clip16"><path d="M 70.433594 152 L 92 152 L 92 201 L 70.433594 201 Z M 70.433594 152 "/></clipPath><clipPath xml:id="clip17" id="clip17"><path d="M 91 198 L 134 198 L 134 228.335938 L 91 228.335938 Z M 91 198 "/></clipPath><clipPath xml:id="clip18" id="clip18"><path d="M 110 151 L 152.183594 151 L 152.183594 188 L 110 188 Z M 110 151 "/></clipPath></defs><g xml:id="surface1" id="surface1"><rect x="0" width="375" y="0" height="374.999991" style="fill:rgb(100%,100%,100%);fill-opacity:1;stroke:none;"/><rect x="0" width="375" y="0" height="374.999991" style="fill:rgb(100%,100%,100%);fill-opacity:1;stroke:none;"/><rect x="0" width="375" y="0" height="374.999991" style="fill:rgb(100%,100%,100%);fill-opacity:1;stroke:none;"/><g clip-rule="nonzero" clip-path="url(#clip1)"><path style=" stroke:none;fill-rule:nonzero;fill:rgb(1.179504%,41.178894%,18.429565%);fill-opacity:1;" d="M 91.988281 155.308594 L 91.988281 173.929688 L 127.21875 153.59375 C 122.242188 151.234375 116.746094 149.996094 111.207031 149.996094 C 105.042969 149.996094 98.941406 151.527344 93.558594 154.425781 C 93.015625 154.710938 92.492188 155.007812 91.988281 155.308594 Z M 90.980469 176.683594 C 90.808594 176.683594 90.632812 176.636719 90.480469 176.546875 C 90.164062 176.367188 89.972656 176.035156 89.972656 175.675781 L 89.972656 154.75 C 89.972656 154.402344 90.152344 154.078125 90.445312 153.898438 C 91.132812 153.464844 91.859375 153.042969 92.609375 152.648438 C 98.28125 149.59375 104.710938 147.980469 111.207031 147.980469 C 117.695312 147.980469 124.125 149.59375 129.8125 152.648438 C 130.128906 152.820312 130.332031 153.15625 130.339844 153.519531 C 130.347656 153.886719 130.152344 154.226562 129.835938 154.410156 L 91.484375 176.546875 C 91.332031 176.636719 91.15625 176.683594 90.980469 176.683594 "/></g><g clip-rule="nonzero" clip-path="url(#clip2)"><path style=" stroke:none;fill-rule:nonzero;fill:rgb(1.179504%,41.178894%,18.429565%);fill-opacity:1;" d="M 132.4375 177.421875 L 132.4375 218.09375 C 142.191406 211.355469 148.175781 200.4375 148.542969 188.539062 C 148.558594 188.144531 148.5625 187.75 148.5625 187.351562 C 148.5625 187.144531 148.558594 186.9375 148.558594 186.726562 Z M 131.433594 220.96875 C 131.261719 220.96875 131.09375 220.925781 130.941406 220.84375 C 130.621094 220.664062 130.421875 220.324219 130.421875 219.960938 L 130.421875 175.675781 C 130.421875 175.316406 130.617188 174.984375 130.925781 174.804688 C 131.238281 174.621094 131.621094 174.621094 131.933594 174.804688 L 150.054688 185.265625 C 150.355469 185.441406 150.546875 185.757812 150.558594 186.105469 C 150.570312 186.519531 150.578125 186.9375 150.578125 187.351562 C 150.578125 187.773438 150.570312 188.1875 150.558594 188.605469 C 150.148438 201.792969 143.199219 213.835938 131.960938 220.816406 C 131.800781 220.914062 131.617188 220.96875 131.433594 220.96875 "/></g><g clip-rule="nonzero" clip-path="url(#clip3)"><path style=" stroke:none;fill-rule:nonzero;fill:rgb(1.179504%,41.178894%,18.429565%);fill-opacity:1;" d="M 73.960938 190.375 C 74.90625 202.164062 81.371094 212.808594 91.511719 219.105469 C 92.003906 219.414062 92.523438 219.71875 93.058594 220.019531 L 109.183594 210.703125 Z M 93.070312 222.179688 C 92.910156 222.179688 92.746094 222.140625 92.597656 222.058594 C 91.84375 221.65625 91.121094 221.238281 90.445312 220.816406 C 79.210938 213.835938 72.253906 201.792969 71.847656 188.605469 C 71.835938 188.238281 72.023438 187.894531 72.339844 187.707031 C 72.648438 187.519531 73.039062 187.515625 73.359375 187.699219 L 111.703125 209.828125 C 112.015625 210.011719 112.207031 210.34375 112.207031 210.703125 C 112.207031 211.0625 112.015625 211.394531 111.703125 211.578125 L 93.578125 222.046875 C 93.417969 222.136719 93.246094 222.179688 93.070312 222.179688 "/></g><g clip-rule="nonzero" clip-path="url(#clip4)"><path style=" stroke:none;fill-rule:nonzero;fill:rgb(1.179504%,41.178894%,18.429565%);fill-opacity:1;" d="M 73.847656 187.984375 L 89.972656 197.289062 L 89.972656 156.613281 C 80.214844 163.347656 74.230469 174.265625 73.859375 186.175781 C 73.847656 186.570312 73.84375 186.957031 73.84375 187.351562 C 73.84375 187.5625 73.847656 187.773438 73.847656 187.984375 Z M 90.980469 200.042969 C 90.808594 200.042969 90.632812 199.996094 90.480469 199.90625 L 72.351562 189.445312 C 72.050781 189.269531 71.859375 188.953125 71.847656 188.605469 C 71.835938 188.1875 71.828125 187.773438 71.828125 187.351562 C 71.828125 186.9375 71.835938 186.527344 71.847656 186.113281 C 72.253906 172.914062 79.210938 160.867188 90.449219 153.890625 C 90.761719 153.703125 91.152344 153.691406 91.472656 153.867188 C 91.792969 154.046875 91.988281 154.382812 91.988281 154.75 L 91.988281 199.035156 C 91.988281 199.394531 91.796875 199.726562 91.484375 199.90625 C 91.332031 199.996094 91.15625 200.042969 90.980469 200.042969 "/></g><g clip-rule="nonzero" clip-path="url(#clip5)"><path style=" stroke:none;fill-rule:nonzero;fill:rgb(1.179504%,41.178894%,18.429565%);fill-opacity:1;" d="M 95.191406 221.113281 C 100.167969 223.476562 105.667969 224.714844 111.207031 224.714844 C 117.363281 224.714844 123.464844 223.183594 128.855469 220.285156 C 129.390625 220 129.917969 219.703125 130.421875 219.394531 L 130.421875 200.773438 L 111.710938 211.578125 C 111.6875 211.589844 111.664062 211.601562 111.640625 211.613281 Z M 111.207031 226.730469 C 104.722656 226.730469 98.285156 225.113281 92.59375 222.058594 C 92.273438 221.886719 92.070312 221.554688 92.066406 221.191406 C 92.058594 220.824219 92.253906 220.480469 92.570312 220.300781 L 110.695312 209.832031 C 110.71875 209.816406 110.742188 209.804688 110.765625 209.796875 L 130.925781 198.15625 C 131.238281 197.972656 131.621094 197.972656 131.933594 198.15625 C 132.246094 198.332031 132.4375 198.667969 132.4375 199.027344 L 132.4375 219.960938 C 132.4375 220.308594 132.257812 220.628906 131.96875 220.816406 C 131.277344 221.25 130.550781 221.667969 129.804688 222.0625 C 124.125 225.113281 117.695312 226.730469 111.207031 226.730469 "/></g><g clip-rule="nonzero" clip-path="url(#clip6)"><path style=" stroke:none;fill-rule:nonzero;fill:rgb(1.179504%,41.178894%,18.429565%);fill-opacity:1;" d="M 113.222656 164 L 148.441406 184.335938 C 147.5 172.542969 141.035156 161.902344 130.898438 155.605469 C 130.898438 155.605469 130.898438 155.601562 130.894531 155.601562 C 130.398438 155.289062 129.882812 154.984375 129.347656 154.691406 Z M 149.550781 187.144531 C 149.378906 187.144531 149.203125 187.101562 149.046875 187.011719 L 110.703125 164.871094 C 110.390625 164.691406 110.195312 164.359375 110.195312 164 C 110.195312 163.640625 110.390625 163.304688 110.703125 163.128906 L 128.828125 152.664062 C 129.132812 152.488281 129.5 152.484375 129.804688 152.648438 C 130.550781 153.042969 131.277344 153.464844 131.964844 153.894531 C 143.199219 160.871094 150.148438 172.914062 150.558594 186.105469 C 150.570312 186.472656 150.382812 186.816406 150.066406 187.003906 C 149.910156 187.101562 149.730469 187.144531 149.550781 187.144531 "/></g><g clip-rule="nonzero" clip-path="url(#clip7)"><g clip-rule="nonzero" clip-path="url(#clip8)"><g clip-rule="nonzero" clip-path="url(#clip9)"><path style=" stroke:none;fill-rule:nonzero;fill:rgb(45.098877%,45.098877%,45.098877%);fill-opacity:1;" d="M 129.863281 176.339844 L 130.195312 198.0625 L 111.613281 209.320312 L 92.695312 198.855469 L 92.355469 177.125 L 110.945312 165.871094 L 129.863281 176.339844 M 131.25 175.5 L 110.917969 164.253906 L 90.949219 176.347656 L 91.308594 199.691406 L 111.640625 210.941406 L 131.613281 198.84375 Z M 131.25 175.5 "/></g></g></g><g style="fill:rgb(0%,0%,0%);fill-opacity:1;"><g transform="translate(150.868017, 199.710827)"><path style="stroke:none;" d="M 19.3125 -23.375 C 19.769531 -23.375 20.140625 -23.222656 20.421875 -22.921875 C 20.703125 -22.617188 20.84375 -22.238281 20.84375 -21.78125 L 20.84375 -8.96875 C 20.84375 -7.207031 20.453125 -5.628906 19.671875 -4.234375 C 18.890625 -2.835938 17.816406 -1.742188 16.453125 -0.953125 C 15.085938 -0.160156 13.550781 0.234375 11.84375 0.234375 C 10.101562 0.234375 8.546875 -0.160156 7.171875 -0.953125 C 5.796875 -1.742188 4.71875 -2.835938 3.9375 -4.234375 C 3.15625 -5.628906 2.765625 -7.207031 2.765625 -8.96875 L 2.765625 -21.78125 C 2.765625 -22.238281 2.921875 -22.617188 3.234375 -22.921875 C 3.546875 -23.222656 3.945312 -23.375 4.4375 -23.375 C 4.851562 -23.375 5.222656 -23.21875 5.546875 -22.90625 C 5.867188 -22.59375 6.03125 -22.21875 6.03125 -21.78125 L 6.03125 -8.96875 C 6.03125 -7.8125 6.296875 -6.769531 6.828125 -5.84375 C 7.367188 -4.925781 8.082031 -4.210938 8.96875 -3.703125 C 9.851562 -3.191406 10.8125 -2.9375 11.84375 -2.9375 C 12.90625 -2.9375 13.890625 -3.191406 14.796875 -3.703125 C 15.710938 -4.210938 16.441406 -4.925781 16.984375 -5.84375 C 17.535156 -6.769531 17.8125 -7.8125 17.8125 -8.96875 L 17.8125 -21.78125 C 17.8125 -22.238281 17.941406 -22.617188 18.203125 -22.921875 C 18.472656 -23.222656 18.84375 -23.375 19.3125 -23.375 Z M 19.3125 -23.375 "/></g></g><g style="fill:rgb(0%,0%,0%);fill-opacity:1;"><g transform="translate(174.478412, 199.710827)"><path style="stroke:none;" d="M 9.84375 0.328125 C 8.21875 0.328125 6.78125 0.101562 5.53125 -0.34375 C 4.289062 -0.800781 3.101562 -1.539062 1.96875 -2.5625 C 1.5 -2.96875 1.265625 -3.425781 1.265625 -3.9375 C 1.265625 -4.332031 1.421875 -4.691406 1.734375 -5.015625 C 2.046875 -5.335938 2.410156 -5.5 2.828125 -5.5 C 3.210938 -5.5 3.535156 -5.378906 3.796875 -5.140625 C 4.691406 -4.316406 5.609375 -3.707031 6.546875 -3.3125 C 7.492188 -2.925781 8.566406 -2.734375 9.765625 -2.734375 C 11.171875 -2.734375 12.351562 -3.054688 13.3125 -3.703125 C 14.28125 -4.347656 14.765625 -5.160156 14.765625 -6.140625 C 14.742188 -7.296875 14.257812 -8.1875 13.3125 -8.8125 C 12.375 -9.445312 10.9375 -9.976562 9 -10.40625 C 6.707031 -10.875 4.945312 -11.640625 3.71875 -12.703125 C 2.488281 -13.765625 1.875 -15.242188 1.875 -17.140625 C 1.875 -18.453125 2.21875 -19.601562 2.90625 -20.59375 C 3.59375 -21.582031 4.546875 -22.34375 5.765625 -22.875 C 6.992188 -23.40625 8.375 -23.671875 9.90625 -23.671875 C 11.28125 -23.671875 12.578125 -23.445312 13.796875 -23 C 15.023438 -22.5625 16.015625 -21.972656 16.765625 -21.234375 C 17.273438 -20.796875 17.53125 -20.320312 17.53125 -19.8125 C 17.53125 -19.40625 17.378906 -19.046875 17.078125 -18.734375 C 16.785156 -18.421875 16.425781 -18.265625 16 -18.265625 C 15.6875 -18.265625 15.429688 -18.359375 15.234375 -18.546875 C 14.660156 -19.117188 13.859375 -19.601562 12.828125 -20 C 11.804688 -20.40625 10.832031 -20.609375 9.90625 -20.609375 C 8.414062 -20.609375 7.226562 -20.300781 6.34375 -19.6875 C 5.46875 -19.070312 5.03125 -18.265625 5.03125 -17.265625 C 5.03125 -16.179688 5.46875 -15.347656 6.34375 -14.765625 C 7.226562 -14.191406 8.535156 -13.703125 10.265625 -13.296875 C 12.003906 -12.921875 13.421875 -12.476562 14.515625 -11.96875 C 15.617188 -11.457031 16.46875 -10.742188 17.0625 -9.828125 C 17.664062 -8.921875 17.96875 -7.734375 17.96875 -6.265625 C 17.96875 -4.972656 17.609375 -3.828125 16.890625 -2.828125 C 16.171875 -1.828125 15.1875 -1.050781 13.9375 -0.5 C 12.695312 0.0507812 11.332031 0.328125 9.84375 0.328125 Z M 9.84375 0.328125 "/></g></g><g style="fill:rgb(0%,0%,0%);fill-opacity:1;"><g transform="translate(193.886959, 199.710827)"><path style="stroke:none;" d="M 19.90625 -12.265625 C 20.351562 -12.265625 20.722656 -12.109375 21.015625 -11.796875 C 21.316406 -11.492188 21.46875 -11.117188 21.46875 -10.671875 L 21.46875 -3.171875 C 21.46875 -2.566406 21.203125 -2.097656 20.671875 -1.765625 C 19.648438 -1.097656 18.523438 -0.582031 17.296875 -0.21875 C 16.078125 0.144531 14.820312 0.328125 13.53125 0.328125 C 11.3125 0.328125 9.273438 -0.203125 7.421875 -1.265625 C 5.566406 -2.335938 4.101562 -3.789062 3.03125 -5.625 C 1.96875 -7.457031 1.4375 -9.472656 1.4375 -11.671875 C 1.4375 -13.867188 1.96875 -15.882812 3.03125 -17.71875 C 4.101562 -19.550781 5.566406 -21 7.421875 -22.0625 C 9.273438 -23.132812 11.3125 -23.671875 13.53125 -23.671875 C 14.644531 -23.671875 15.71875 -23.546875 16.75 -23.296875 C 17.789062 -23.054688 18.722656 -22.691406 19.546875 -22.203125 C 19.804688 -22.046875 20.003906 -21.859375 20.140625 -21.640625 C 20.273438 -21.421875 20.34375 -21.175781 20.34375 -20.90625 C 20.34375 -20.457031 20.191406 -20.070312 19.890625 -19.75 C 19.585938 -19.425781 19.226562 -19.265625 18.8125 -19.265625 C 18.476562 -19.265625 18.1875 -19.34375 17.9375 -19.5 C 16.488281 -20.164062 15.019531 -20.5 13.53125 -20.5 C 11.9375 -20.5 10.476562 -20.109375 9.15625 -19.328125 C 7.832031 -18.554688 6.785156 -17.492188 6.015625 -16.140625 C 5.253906 -14.785156 4.875 -13.296875 4.875 -11.671875 C 4.875 -10.046875 5.253906 -8.5625 6.015625 -7.21875 C 6.785156 -5.875 7.832031 -4.804688 9.15625 -4.015625 C 10.476562 -3.222656 11.9375 -2.828125 13.53125 -2.828125 C 14.289062 -2.828125 15.085938 -2.914062 15.921875 -3.09375 C 16.753906 -3.28125 17.472656 -3.515625 18.078125 -3.796875 L 18.078125 -9.109375 L 14.03125 -9.109375 C 13.59375 -9.109375 13.21875 -9.253906 12.90625 -9.546875 C 12.59375 -9.847656 12.4375 -10.222656 12.4375 -10.671875 C 12.4375 -11.140625 12.59375 -11.519531 12.90625 -11.8125 C 13.21875 -12.113281 13.59375 -12.265625 14.03125 -12.265625 Z M 19.90625 -12.265625 "/></g></g><g style="fill:rgb(0%,0%,0%);fill-opacity:1;"><g transform="translate(217.063833, 199.710827)"><path style="stroke:none;" d="M 9.84375 0.328125 C 8.21875 0.328125 6.78125 0.101562 5.53125 -0.34375 C 4.289062 -0.800781 3.101562 -1.539062 1.96875 -2.5625 C 1.5 -2.96875 1.265625 -3.425781 1.265625 -3.9375 C 1.265625 -4.332031 1.421875 -4.691406 1.734375 -5.015625 C 2.046875 -5.335938 2.410156 -5.5 2.828125 -5.5 C 3.210938 -5.5 3.535156 -5.378906 3.796875 -5.140625 C 4.691406 -4.316406 5.609375 -3.707031 6.546875 -3.3125 C 7.492188 -2.925781 8.566406 -2.734375 9.765625 -2.734375 C 11.171875 -2.734375 12.351562 -3.054688 13.3125 -3.703125 C 14.28125 -4.347656 14.765625 -5.160156 14.765625 -6.140625 C 14.742188 -7.296875 14.257812 -8.1875 13.3125 -8.8125 C 12.375 -9.445312 10.9375 -9.976562 9 -10.40625 C 6.707031 -10.875 4.945312 -11.640625 3.71875 -12.703125 C 2.488281 -13.765625 1.875 -15.242188 1.875 -17.140625 C 1.875 -18.453125 2.21875 -19.601562 2.90625 -20.59375 C 3.59375 -21.582031 4.546875 -22.34375 5.765625 -22.875 C 6.992188 -23.40625 8.375 -23.671875 9.90625 -23.671875 C 11.28125 -23.671875 12.578125 -23.445312 13.796875 -23 C 15.023438 -22.5625 16.015625 -21.972656 16.765625 -21.234375 C 17.273438 -20.796875 17.53125 -20.320312 17.53125 -19.8125 C 17.53125 -19.40625 17.378906 -19.046875 17.078125 -18.734375 C 16.785156 -18.421875 16.425781 -18.265625 16 -18.265625 C 15.6875 -18.265625 15.429688 -18.359375 15.234375 -18.546875 C 14.660156 -19.117188 13.859375 -19.601562 12.828125 -20 C 11.804688 -20.40625 10.832031 -20.609375 9.90625 -20.609375 C 8.414062 -20.609375 7.226562 -20.300781 6.34375 -19.6875 C 5.46875 -19.070312 5.03125 -18.265625 5.03125 -17.265625 C 5.03125 -16.179688 5.46875 -15.347656 6.34375 -14.765625 C 7.226562 -14.191406 8.535156 -13.703125 10.265625 -13.296875 C 12.003906 -12.921875 13.421875 -12.476562 14.515625 -11.96875 C 15.617188 -11.457031 16.46875 -10.742188 17.0625 -9.828125 C 17.664062 -8.921875 17.96875 -7.734375 17.96875 -6.265625 C 17.96875 -4.972656 17.609375 -3.828125 16.890625 -2.828125 C 16.171875 -1.828125 15.1875 -1.050781 13.9375 -0.5 C 12.695312 0.0507812 11.332031 0.328125 9.84375 0.328125 Z M 9.84375 0.328125 "/></g></g><g style="fill:rgb(45.098877%,45.098877%,45.098877%);fill-opacity:1;"><g transform="translate(236.467055, 199.710827)"><path style="stroke:none;" d="M 19.40625 -21.96875 C 19.9375 -21.6875 20.203125 -21.242188 20.203125 -20.640625 C 20.203125 -20.242188 20.070312 -19.878906 19.8125 -19.546875 C 19.539062 -19.179688 19.171875 -19 18.703125 -19 C 18.390625 -19 18.09375 -19.078125 17.8125 -19.234375 C 16.425781 -20.015625 14.9375 -20.40625 13.34375 -20.40625 C 11.675781 -20.40625 10.203125 -20.035156 8.921875 -19.296875 C 7.640625 -18.566406 6.644531 -17.539062 5.9375 -16.21875 C 5.226562 -14.894531 4.875 -13.378906 4.875 -11.671875 C 4.875 -9.828125 5.238281 -8.238281 5.96875 -6.90625 C 6.695312 -5.570312 7.707031 -4.550781 9 -3.84375 C 10.289062 -3.144531 11.738281 -2.796875 13.34375 -2.796875 C 14.988281 -2.796875 16.476562 -3.195312 17.8125 -4 C 18.070312 -4.132812 18.359375 -4.203125 18.671875 -4.203125 C 19.160156 -4.203125 19.550781 -4.015625 19.84375 -3.640625 C 20.101562 -3.304688 20.234375 -2.945312 20.234375 -2.5625 C 20.234375 -2.300781 20.160156 -2.050781 20.015625 -1.8125 C 19.878906 -1.582031 19.6875 -1.398438 19.4375 -1.265625 C 18.570312 -0.773438 17.597656 -0.382812 16.515625 -0.09375 C 15.441406 0.1875 14.382812 0.328125 13.34375 0.328125 C 11.1875 0.328125 9.203125 -0.144531 7.390625 -1.09375 C 5.578125 -2.050781 4.128906 -3.441406 3.046875 -5.265625 C 1.972656 -7.085938 1.4375 -9.222656 1.4375 -11.671875 C 1.4375 -13.910156 1.953125 -15.9375 2.984375 -17.75 C 4.015625 -19.5625 5.4375 -20.984375 7.25 -22.015625 C 9.0625 -23.054688 11.09375 -23.578125 13.34375 -23.578125 C 15.5 -23.578125 17.519531 -23.039062 19.40625 -21.96875 Z M 19.40625 -21.96875 "/></g></g><g style="fill:rgb(45.098877%,45.098877%,45.098877%);fill-opacity:1;"><g transform="translate(257.743085, 199.710827)"><path style="stroke:none;" d="M 9.84375 0.328125 C 8.21875 0.328125 6.78125 0.101562 5.53125 -0.34375 C 4.289062 -0.800781 3.101562 -1.539062 1.96875 -2.5625 C 1.5 -2.96875 1.265625 -3.425781 1.265625 -3.9375 C 1.265625 -4.332031 1.421875 -4.691406 1.734375 -5.015625 C 2.046875 -5.335938 2.410156 -5.5 2.828125 -5.5 C 3.210938 -5.5 3.535156 -5.378906 3.796875 -5.140625 C 4.691406 -4.316406 5.609375 -3.707031 6.546875 -3.3125 C 7.492188 -2.925781 8.566406 -2.734375 9.765625 -2.734375 C 11.171875 -2.734375 12.351562 -3.054688 13.3125 -3.703125 C 14.28125 -4.347656 14.765625 -5.160156 14.765625 -6.140625 C 14.742188 -7.296875 14.257812 -8.1875 13.3125 -8.8125 C 12.375 -9.445312 10.9375 -9.976562 9 -10.40625 C 6.707031 -10.875 4.945312 -11.640625 3.71875 -12.703125 C 2.488281 -13.765625 1.875 -15.242188 1.875 -17.140625 C 1.875 -18.453125 2.21875 -19.601562 2.90625 -20.59375 C 3.59375 -21.582031 4.546875 -22.34375 5.765625 -22.875 C 6.992188 -23.40625 8.375 -23.671875 9.90625 -23.671875 C 11.28125 -23.671875 12.578125 -23.445312 13.796875 -23 C 15.023438 -22.5625 16.015625 -21.972656 16.765625 -21.234375 C 17.273438 -20.796875 17.53125 -20.320312 17.53125 -19.8125 C 17.53125 -19.40625 17.378906 -19.046875 17.078125 -18.734375 C 16.785156 -18.421875 16.425781 -18.265625 16 -18.265625 C 15.6875 -18.265625 15.429688 -18.359375 15.234375 -18.546875 C 14.660156 -19.117188 13.859375 -19.601562 12.828125 -20 C 11.804688 -20.40625 10.832031 -20.609375 9.90625 -20.609375 C 8.414062 -20.609375 7.226562 -20.300781 6.34375 -19.6875 C 5.46875 -19.070312 5.03125 -18.265625 5.03125 -17.265625 C 5.03125 -16.179688 5.46875 -15.347656 6.34375 -14.765625 C 7.226562 -14.191406 8.535156 -13.703125 10.265625 -13.296875 C 12.003906 -12.921875 13.421875 -12.476562 14.515625 -11.96875 C 15.617188 -11.457031 16.46875 -10.742188 17.0625 -9.828125 C 17.664062 -8.921875 17.96875 -7.734375 17.96875 -6.265625 C 17.96875 -4.972656 17.609375 -3.828125 16.890625 -2.828125 C 16.171875 -1.828125 15.1875 -1.050781 13.9375 -0.5 C 12.695312 0.0507812 11.332031 0.328125 9.84375 0.328125 Z M 9.84375 0.328125 "/></g></g><g style="fill:rgb(45.098877%,45.098877%,45.098877%);fill-opacity:1;"><g transform="translate(277.151632, 199.710827)"><path style="stroke:none;" d="M 23.046875 -23.375 C 23.484375 -23.351562 23.859375 -23.191406 24.171875 -22.890625 C 24.484375 -22.585938 24.640625 -22.21875 24.640625 -21.78125 L 24.640625 -1.59375 C 24.640625 -1.15625 24.488281 -0.78125 24.1875 -0.46875 C 23.882812 -0.15625 23.488281 0 23 0 C 22.519531 0 22.125 -0.148438 21.8125 -0.453125 C 21.5 -0.753906 21.34375 -1.132812 21.34375 -1.59375 L 21.34375 -17.03125 L 14.875 -7.234375 C 14.71875 -7.035156 14.519531 -6.867188 14.28125 -6.734375 C 14.050781 -6.597656 13.816406 -6.539062 13.578125 -6.5625 C 13.347656 -6.539062 13.113281 -6.597656 12.875 -6.734375 C 12.644531 -6.867188 12.453125 -7.035156 12.296875 -7.234375 L 5.796875 -17.34375 L 5.796875 -1.59375 C 5.796875 -1.132812 5.65625 -0.753906 5.375 -0.453125 C 5.101562 -0.148438 4.734375 0 4.265625 0 C 3.816406 0 3.453125 -0.148438 3.171875 -0.453125 C 2.898438 -0.753906 2.765625 -1.132812 2.765625 -1.59375 L 2.765625 -21.78125 C 2.765625 -22.195312 2.921875 -22.566406 3.234375 -22.890625 C 3.546875 -23.210938 3.9375 -23.375 4.40625 -23.375 C 4.664062 -23.375 4.921875 -23.304688 5.171875 -23.171875 C 5.429688 -23.035156 5.640625 -22.859375 5.796875 -22.640625 L 13.703125 -10.671875 L 21.703125 -22.640625 C 22.054688 -23.128906 22.503906 -23.375 23.046875 -23.375 Z M 23.046875 -23.375 "/></g></g><g clip-rule="nonzero" clip-path="url(#clip10)"><g clip-rule="nonzero" clip-path="url(#clip11)"><g clip-rule="nonzero" clip-path="url(#clip12)"><path style=" stroke:none;fill-rule:nonzero;fill:rgb(45.098877%,45.098877%,45.098877%);fill-opacity:1;" d="M 129.046875 177.09375 L 129.429688 197.644531 L 111.816406 208.242188 L 93.820312 198.285156 L 93.429688 177.730469 L 111.054688 167.136719 L 129.046875 177.09375 M 130.363281 176.304688 L 111.019531 165.605469 L 92.089844 176.988281 L 92.503906 199.074219 L 111.847656 209.773438 L 130.777344 198.390625 Z M 130.363281 176.304688 "/></g></g></g><g clip-rule="nonzero" clip-path="url(#clip13)"><path style=" stroke:none;fill-rule:nonzero;fill:rgb(1.179504%,41.178894%,18.429565%);fill-opacity:1;" d="M 91.363281 154.195312 L 91.363281 173.527344 L 127.933594 152.414062 C 122.769531 149.964844 117.066406 148.679688 111.3125 148.679688 C 104.917969 148.679688 98.582031 150.269531 92.992188 153.277344 C 92.429688 153.574219 91.886719 153.882812 91.363281 154.195312 Z M 90.316406 176.382812 C 90.136719 176.382812 89.957031 176.335938 89.796875 176.242188 C 89.472656 176.054688 89.273438 175.710938 89.273438 175.335938 L 89.273438 153.617188 C 89.273438 153.253906 89.457031 152.917969 89.761719 152.730469 C 90.472656 152.28125 91.230469 151.84375 92.007812 151.429688 C 97.894531 148.265625 104.574219 146.585938 111.3125 146.585938 C 118.046875 146.585938 124.726562 148.265625 130.625 151.433594 C 130.960938 151.613281 131.167969 151.960938 131.175781 152.339844 C 131.183594 152.71875 130.980469 153.074219 130.652344 153.261719 L 90.839844 176.242188 C 90.679688 176.335938 90.5 176.382812 90.316406 176.382812 "/></g><g clip-rule="nonzero" clip-path="url(#clip14)"><path style=" stroke:none;fill-rule:nonzero;fill:rgb(1.179504%,41.178894%,18.429565%);fill-opacity:1;" d="M 133.355469 177.152344 L 133.355469 219.375 C 143.480469 212.375 149.691406 201.042969 150.074219 188.691406 C 150.085938 188.28125 150.09375 187.875 150.09375 187.460938 C 150.09375 187.242188 150.089844 187.027344 150.085938 186.8125 Z M 132.308594 222.355469 C 132.132812 222.355469 131.957031 222.3125 131.800781 222.226562 C 131.464844 222.039062 131.261719 221.6875 131.261719 221.308594 L 131.261719 175.335938 C 131.261719 174.964844 131.464844 174.617188 131.785156 174.433594 C 132.109375 174.246094 132.507812 174.246094 132.832031 174.433594 L 151.640625 185.292969 C 151.957031 185.476562 152.152344 185.804688 152.167969 186.164062 C 152.179688 186.597656 152.183594 187.027344 152.183594 187.460938 C 152.183594 187.898438 152.179688 188.328125 152.167969 188.757812 C 151.742188 202.449219 144.523438 214.949219 132.859375 222.195312 C 132.691406 222.300781 132.5 222.355469 132.308594 222.355469 "/></g><g clip-rule="nonzero" clip-path="url(#clip15)"><path style=" stroke:none;fill-rule:nonzero;fill:rgb(1.179504%,41.178894%,18.429565%);fill-opacity:1;" d="M 72.652344 190.597656 C 73.632812 202.835938 80.339844 213.882812 90.871094 220.421875 C 91.378906 220.742188 91.921875 221.058594 92.476562 221.371094 L 109.214844 211.699219 Z M 92.488281 223.613281 C 92.320312 223.613281 92.148438 223.574219 91.996094 223.488281 C 91.214844 223.070312 90.464844 222.636719 89.761719 222.195312 C 78.097656 214.949219 70.878906 202.453125 70.453125 188.757812 C 70.445312 188.378906 70.640625 188.019531 70.964844 187.828125 C 71.289062 187.632812 71.695312 187.628906 72.027344 187.820312 L 111.832031 210.792969 C 112.152344 210.980469 112.355469 211.328125 112.355469 211.699219 C 112.355469 212.074219 112.152344 212.417969 111.832031 212.605469 L 93.011719 223.472656 C 92.847656 223.570312 92.671875 223.613281 92.488281 223.613281 "/></g><g clip-rule="nonzero" clip-path="url(#clip16)"><path style=" stroke:none;fill-rule:nonzero;fill:rgb(1.179504%,41.178894%,18.429565%);fill-opacity:1;" d="M 72.535156 188.113281 L 89.273438 197.773438 L 89.273438 155.550781 C 79.144531 162.542969 72.929688 173.875 72.546875 186.238281 C 72.535156 186.648438 72.527344 187.050781 72.527344 187.460938 C 72.527344 187.679688 72.53125 187.898438 72.535156 188.113281 Z M 90.316406 200.632812 C 90.136719 200.632812 89.957031 200.585938 89.796875 200.492188 L 70.976562 189.628906 C 70.664062 189.449219 70.46875 189.121094 70.453125 188.757812 C 70.441406 188.328125 70.433594 187.898438 70.433594 187.460938 C 70.433594 187.027344 70.441406 186.601562 70.453125 186.171875 C 70.878906 172.472656 78.097656 159.96875 89.769531 152.726562 C 90.089844 152.527344 90.496094 152.515625 90.828125 152.699219 C 91.160156 152.882812 91.363281 153.234375 91.363281 153.617188 L 91.363281 199.585938 C 91.363281 199.960938 91.167969 200.304688 90.839844 200.492188 C 90.679688 200.585938 90.5 200.632812 90.316406 200.632812 "/></g><g clip-rule="nonzero" clip-path="url(#clip17)"><path style=" stroke:none;fill-rule:nonzero;fill:rgb(1.179504%,41.178894%,18.429565%);fill-opacity:1;" d="M 94.6875 222.507812 C 99.855469 224.957031 105.566406 226.246094 111.3125 226.246094 C 117.703125 226.246094 124.039062 224.65625 129.636719 221.648438 C 130.191406 221.351562 130.738281 221.042969 131.261719 220.722656 L 131.261719 201.390625 L 111.835938 212.605469 C 111.8125 212.621094 111.789062 212.632812 111.765625 212.644531 Z M 111.3125 228.335938 C 104.582031 228.335938 97.902344 226.660156 91.992188 223.488281 C 91.660156 223.3125 91.449219 222.960938 91.445312 222.585938 C 91.4375 222.207031 91.640625 221.851562 91.96875 221.664062 L 110.785156 210.796875 C 110.808594 210.78125 110.832031 210.765625 110.855469 210.757812 L 131.785156 198.675781 C 132.109375 198.484375 132.507812 198.484375 132.832031 198.675781 C 133.15625 198.859375 133.355469 199.203125 133.355469 199.582031 L 133.355469 221.308594 C 133.355469 221.667969 133.167969 222.003906 132.867188 222.195312 C 132.148438 222.648438 131.394531 223.082031 130.621094 223.492188 C 124.726562 226.660156 118.046875 228.335938 111.3125 228.335938 "/></g><g clip-rule="nonzero" clip-path="url(#clip18)"><path style=" stroke:none;fill-rule:nonzero;fill:rgb(1.179504%,41.178894%,18.429565%);fill-opacity:1;" d="M 113.40625 163.21875 L 149.96875 184.328125 C 148.988281 172.085938 142.28125 161.039062 131.757812 154.503906 C 131.753906 154.503906 131.753906 154.5 131.75 154.5 C 131.238281 154.175781 130.699219 153.859375 130.148438 153.554688 Z M 151.117188 187.246094 C 150.941406 187.246094 150.757812 187.195312 150.59375 187.105469 L 110.789062 164.121094 C 110.46875 163.9375 110.265625 163.59375 110.265625 163.21875 C 110.265625 162.84375 110.46875 162.496094 110.789062 162.3125 L 129.609375 151.449219 C 129.921875 151.269531 130.304688 151.261719 130.621094 151.429688 C 131.398438 151.84375 132.148438 152.28125 132.863281 152.726562 C 144.523438 159.96875 151.742188 172.472656 152.167969 186.164062 C 152.175781 186.546875 151.980469 186.902344 151.65625 187.097656 C 151.492188 187.195312 151.304688 187.246094 151.117188 187.246094 "/></g></g></svg>