<?xml version="1.0" encoding="UTF-8"?><svg xmlns="http://www.w3.org/2000/svg" xmlns:xlink="http://www.w3.org/1999/xlink" width="375pt" zoomAndPan="magnify" viewBox="0 0 375 374.999991" height="374.999991pt" preserveAspectRatio="xMidYMid meet" version="1.2"><defs><clipPath xml:id="clip1" id="clip1"><path d="M 157 132.390625 L 215 132.390625 L 215 173 L 157 173 Z M 157 132.390625 "/></clipPath><clipPath xml:id="clip2" id="clip2"><path d="M 214 169 L 242.640625 169 L 242.640625 235 L 214 235 Z M 214 169 "/></clipPath><clipPath xml:id="clip3" id="clip3"><path d="M 132.390625 187 L 189 187 L 189 237 L 132.390625 237 Z M 132.390625 187 "/></clipPath><clipPath xml:id="clip4" id="clip4"><path d="M 132.390625 140 L 161 140 L 161 206 L 132.390625 206 Z M 132.390625 140 "/></clipPath><clipPath xml:id="clip5" id="clip5"><path d="M 160 202 L 218 202 L 218 242.640625 L 160 242.640625 Z M 160 202 "/></clipPath><clipPath xml:id="clip6" id="clip6"><path d="M 186 138 L 242.640625 138 L 242.640625 188 L 186 188 Z M 186 138 "/></clipPath><clipPath xml:id="clip7" id="clip7"><path d="M 159 155 L 217 155 L 217 221 L 159 221 Z M 159 155 "/></clipPath><clipPath xml:id="clip8" id="clip8"><path d="M 172.703125 147.230469 L 229.796875 178.816406 L 202.566406 228.039062 L 145.472656 196.449219 Z M 172.703125 147.230469 "/></clipPath><clipPath xml:id="clip9" id="clip9"><path d="M 172.703125 147.230469 L 229.796875 178.816406 L 202.566406 228.039062 L 145.472656 196.449219 Z M 172.703125 147.230469 "/></clipPath><clipPath xml:id="clip10" id="clip10"><path d="M 160 156 L 215 156 L 215 219 L 160 219 Z M 160 156 "/></clipPath><clipPath xml:id="clip11" id="clip11"><path d="M 173.535156 149.492188 L 227.351562 179.265625 L 201.570312 225.859375 L 147.757812 196.085938 Z M 173.535156 149.492188 "/></clipPath><clipPath xml:id="clip12" id="clip12"><path d="M 173.535156 149.492188 L 227.351562 179.265625 L 201.570312 225.859375 L 147.757812 196.085938 Z M 173.535156 149.492188 "/></clipPath><clipPath xml:id="clip13" id="clip13"><path d="M 156 130.449219 L 216 130.449219 L 216 172 L 156 172 Z M 156 130.449219 "/></clipPath><clipPath xml:id="clip14" id="clip14"><path d="M 215 169 L 244.449219 169 L 244.449219 237 L 215 237 Z M 215 169 "/></clipPath><clipPath xml:id="clip15" id="clip15"><path d="M 130.449219 187 L 189 187 L 189 238 L 130.449219 238 Z M 130.449219 187 "/></clipPath><clipPath xml:id="clip16" id="clip16"><path d="M 130.449219 138 L 160 138 L 160 206 L 130.449219 206 Z M 130.449219 138 "/></clipPath><clipPath xml:id="clip17" id="clip17"><path d="M 159 202 L 219 202 L 219 244.449219 L 159 244.449219 Z M 159 202 "/></clipPath><clipPath xml:id="clip18" id="clip18"><path d="M 185 137 L 244.449219 137 L 244.449219 188 L 185 188 Z M 185 137 "/></clipPath></defs><g xml:id="surface1" id="surface1"><rect x="0" width="375" y="0" height="374.999991" style="fill:rgb(100%,100%,100%);fill-opacity:1;stroke:none;"/><rect x="0" width="375" y="0" height="374.999991" style="fill:rgb(100%,100%,100%);fill-opacity:1;stroke:none;"/><rect x="0" width="375" y="0" height="374.999991" style="fill:rgb(100%,100%,100%);fill-opacity:1;stroke:none;"/><g clip-rule="nonzero" clip-path="url(#clip1)"><path style=" stroke:none;fill-rule:nonzero;fill:rgb(1.179504%,41.178894%,18.429565%);fill-opacity:1;" d="M 160.617188 142.652344 L 160.617188 168.71875 L 209.933594 140.25 C 202.972656 136.945312 195.273438 135.210938 187.519531 135.210938 C 178.894531 135.210938 170.347656 137.355469 162.8125 141.414062 C 162.054688 141.8125 161.320312 142.226562 160.617188 142.652344 Z M 159.203125 172.574219 C 158.960938 172.574219 158.714844 172.511719 158.5 172.386719 C 158.0625 172.132812 157.792969 171.667969 157.792969 171.164062 L 157.792969 141.867188 C 157.792969 141.382812 158.042969 140.929688 158.453125 140.675781 C 159.414062 140.070312 160.433594 139.476562 161.480469 138.921875 C 169.421875 134.652344 178.425781 132.390625 187.519531 132.390625 C 196.601562 132.390625 205.605469 134.652344 213.566406 138.925781 C 214.011719 139.167969 214.296875 139.636719 214.304688 140.144531 C 214.316406 140.660156 214.042969 141.136719 213.601562 141.390625 L 159.910156 172.386719 C 159.695312 172.511719 159.449219 172.574219 159.203125 172.574219 "/></g><g clip-rule="nonzero" clip-path="url(#clip2)"><path style=" stroke:none;fill-rule:nonzero;fill:rgb(1.179504%,41.178894%,18.429565%);fill-opacity:1;" d="M 217.242188 173.609375 L 217.242188 230.550781 C 230.898438 221.113281 239.277344 205.832031 239.792969 189.171875 C 239.808594 188.621094 239.820312 188.070312 239.820312 187.511719 C 239.820312 187.21875 239.816406 186.929688 239.808594 186.636719 Z M 215.835938 234.574219 C 215.597656 234.574219 215.363281 234.511719 215.144531 234.398438 C 214.699219 234.148438 214.421875 233.671875 214.421875 233.160156 L 214.421875 171.164062 C 214.421875 170.660156 214.695312 170.195312 215.128906 169.945312 C 215.5625 169.691406 216.101562 169.691406 216.539062 169.945312 L 241.90625 184.589844 C 242.328125 184.835938 242.597656 185.28125 242.613281 185.765625 C 242.632812 186.347656 242.640625 186.929688 242.640625 187.511719 C 242.640625 188.101562 242.632812 188.683594 242.613281 189.261719 C 242.042969 207.726562 232.308594 224.585938 216.574219 234.359375 C 216.351562 234.5 216.09375 234.574219 215.835938 234.574219 "/></g><g clip-rule="nonzero" clip-path="url(#clip3)"><path style=" stroke:none;fill-rule:nonzero;fill:rgb(1.179504%,41.178894%,18.429565%);fill-opacity:1;" d="M 135.378906 191.742188 C 136.699219 208.246094 145.75 223.148438 159.949219 231.964844 C 160.636719 232.398438 161.363281 232.824219 162.113281 233.242188 L 184.691406 220.203125 Z M 162.132812 236.269531 C 161.902344 236.269531 161.675781 236.214844 161.46875 236.101562 C 160.414062 235.539062 159.402344 234.953125 158.453125 234.359375 C 142.726562 224.585938 132.988281 207.730469 132.414062 189.261719 C 132.402344 188.75 132.664062 188.269531 133.105469 188.003906 C 133.539062 187.742188 134.085938 187.738281 134.535156 187.996094 L 188.214844 218.980469 C 188.652344 219.234375 188.921875 219.699219 188.921875 220.203125 C 188.921875 220.707031 188.652344 221.171875 188.214844 221.425781 L 162.835938 236.082031 C 162.617188 236.210938 162.375 236.269531 162.132812 236.269531 "/></g><g clip-rule="nonzero" clip-path="url(#clip4)"><path style=" stroke:none;fill-rule:nonzero;fill:rgb(1.179504%,41.178894%,18.429565%);fill-opacity:1;" d="M 135.21875 188.394531 L 157.792969 201.421875 L 157.792969 144.476562 C 144.132812 153.90625 135.753906 169.191406 135.238281 185.867188 C 135.21875 186.417969 135.210938 186.960938 135.210938 187.511719 C 135.210938 187.808594 135.214844 188.101562 135.21875 188.394531 Z M 159.203125 205.273438 C 158.960938 205.273438 158.714844 205.214844 158.5 205.085938 L 133.121094 190.4375 C 132.699219 190.195312 132.433594 189.75 132.414062 189.261719 C 132.398438 188.683594 132.390625 188.101562 132.390625 187.511719 C 132.390625 186.929688 132.398438 186.355469 132.414062 185.773438 C 132.988281 167.300781 142.726562 150.433594 158.460938 140.667969 C 158.898438 140.398438 159.445312 140.386719 159.890625 140.632812 C 160.339844 140.882812 160.617188 141.355469 160.617188 141.867188 L 160.617188 203.867188 C 160.617188 204.371094 160.347656 204.835938 159.910156 205.085938 C 159.695312 205.214844 159.449219 205.273438 159.203125 205.273438 "/></g><g clip-rule="nonzero" clip-path="url(#clip5)"><path style=" stroke:none;fill-rule:nonzero;fill:rgb(1.179504%,41.178894%,18.429565%);fill-opacity:1;" d="M 165.097656 234.777344 C 172.066406 238.082031 179.765625 239.820312 187.519531 239.820312 C 196.136719 239.820312 204.679688 237.675781 212.230469 233.617188 C 212.980469 233.214844 213.714844 232.804688 214.421875 232.371094 L 214.421875 206.300781 L 188.226562 221.425781 C 188.191406 221.441406 188.160156 221.460938 188.125 221.476562 Z M 187.519531 242.640625 C 178.441406 242.640625 169.429688 240.378906 161.464844 236.101562 C 161.015625 235.859375 160.730469 235.390625 160.722656 234.882812 C 160.714844 234.371094 160.984375 233.894531 161.429688 233.640625 L 186.804688 218.984375 C 186.839844 218.960938 186.867188 218.945312 186.902344 218.933594 L 215.128906 202.636719 C 215.5625 202.382812 216.101562 202.382812 216.539062 202.636719 C 216.976562 202.886719 217.242188 203.351562 217.242188 203.859375 L 217.242188 233.160156 C 217.242188 233.648438 216.992188 234.101562 216.585938 234.359375 C 215.621094 234.964844 214.597656 235.550781 213.558594 236.105469 C 205.605469 240.378906 196.601562 242.640625 187.519531 242.640625 "/></g><g clip-rule="nonzero" clip-path="url(#clip6)"><path style=" stroke:none;fill-rule:nonzero;fill:rgb(1.179504%,41.178894%,18.429565%);fill-opacity:1;" d="M 190.339844 154.820312 L 239.652344 183.285156 C 238.328125 166.777344 229.28125 151.882812 215.089844 143.066406 C 215.085938 143.066406 215.085938 143.0625 215.082031 143.0625 C 214.386719 142.621094 213.664062 142.195312 212.917969 141.785156 Z M 241.203125 187.222656 C 240.960938 187.222656 240.714844 187.15625 240.496094 187.03125 L 186.8125 156.039062 C 186.378906 155.789062 186.105469 155.324219 186.105469 154.820312 C 186.105469 154.316406 186.378906 153.84375 186.8125 153.59375 L 212.191406 138.949219 C 212.613281 138.703125 213.128906 138.695312 213.558594 138.921875 C 214.601562 139.476562 215.621094 140.070312 216.582031 140.671875 C 232.308594 150.4375 242.042969 167.300781 242.613281 185.765625 C 242.625 186.277344 242.363281 186.761719 241.925781 187.023438 C 241.707031 187.15625 241.449219 187.222656 241.203125 187.222656 "/></g><g clip-rule="nonzero" clip-path="url(#clip7)"><g clip-rule="nonzero" clip-path="url(#clip8)"><g clip-rule="nonzero" clip-path="url(#clip9)"><path style=" stroke:none;fill-rule:nonzero;fill:rgb(45.098877%,45.098877%,45.098877%);fill-opacity:1;" d="M 213.578125 172.070312 L 214.179688 202.320312 L 188.234375 217.878906 L 161.691406 203.195312 L 161.082031 172.941406 L 187.035156 157.386719 L 213.578125 172.070312 M 215.515625 170.914062 L 186.988281 155.132812 L 159.109375 171.851562 L 159.757812 204.351562 L 188.285156 220.136719 L 216.164062 203.417969 Z M 215.515625 170.914062 "/></g></g></g><g clip-rule="nonzero" clip-path="url(#clip10)"><g clip-rule="nonzero" clip-path="url(#clip11)"><g clip-rule="nonzero" clip-path="url(#clip12)"><path style=" stroke:none;fill-rule:nonzero;fill:rgb(45.098877%,45.098877%,45.098877%);fill-opacity:1;" d="M 212.058594 172.914062 L 212.570312 201.519531 L 188.066406 216.28125 L 163.046875 202.4375 L 162.523438 173.828125 L 187.042969 159.074219 L 212.058594 172.914062 M 213.886719 171.816406 L 187 156.941406 L 160.664062 172.800781 L 161.21875 203.535156 L 188.109375 218.414062 L 214.445312 202.554688 Z M 213.886719 171.816406 "/></g></g></g><g clip-rule="nonzero" clip-path="url(#clip13)"><path style=" stroke:none;fill-rule:nonzero;fill:rgb(1.179504%,41.178894%,18.429565%);fill-opacity:1;" d="M 159.632812 141.058594 L 159.632812 168.015625 L 210.628906 138.574219 C 203.429688 135.160156 195.472656 133.363281 187.453125 133.363281 C 178.53125 133.363281 169.699219 135.582031 161.90625 139.777344 C 161.121094 140.191406 160.363281 140.617188 159.632812 141.058594 Z M 158.171875 172 C 157.921875 172 157.667969 171.933594 157.445312 171.804688 C 156.992188 171.542969 156.714844 171.058594 156.714844 170.539062 L 156.714844 140.25 C 156.714844 139.746094 156.976562 139.277344 157.398438 139.015625 C 158.390625 138.386719 159.445312 137.777344 160.527344 137.203125 C 168.738281 132.785156 178.050781 130.449219 187.453125 130.449219 C 196.84375 130.449219 206.15625 132.785156 214.382812 137.207031 C 214.847656 137.457031 215.140625 137.941406 215.152344 138.46875 C 215.160156 138.996094 214.878906 139.492188 214.421875 139.753906 L 158.902344 171.804688 C 158.679688 171.933594 158.425781 172 158.171875 172 "/></g><g clip-rule="nonzero" clip-path="url(#clip14)"><path style=" stroke:none;fill-rule:nonzero;fill:rgb(1.179504%,41.178894%,18.429565%);fill-opacity:1;" d="M 218.1875 173.070312 L 218.1875 231.949219 C 232.308594 222.191406 240.96875 206.386719 241.503906 189.164062 C 241.523438 188.59375 241.53125 188.023438 241.53125 187.441406 C 241.53125 187.140625 241.527344 186.84375 241.523438 186.539062 Z M 216.730469 236.105469 C 216.488281 236.105469 216.242188 236.042969 216.019531 235.925781 C 215.554688 235.667969 215.269531 235.175781 215.269531 234.644531 L 215.269531 170.539062 C 215.269531 170.019531 215.550781 169.539062 216 169.277344 C 216.449219 169.015625 217.007812 169.015625 217.457031 169.277344 L 243.691406 184.425781 C 244.128906 184.679688 244.402344 185.136719 244.421875 185.640625 C 244.4375 186.242188 244.449219 186.84375 244.449219 187.441406 C 244.449219 188.054688 244.4375 188.65625 244.421875 189.253906 C 243.828125 208.347656 233.765625 225.78125 217.496094 235.882812 C 217.265625 236.03125 217 236.105469 216.730469 236.105469 "/></g><g clip-rule="nonzero" clip-path="url(#clip15)"><path style=" stroke:none;fill-rule:nonzero;fill:rgb(1.179504%,41.178894%,18.429565%);fill-opacity:1;" d="M 133.539062 191.820312 C 134.90625 208.886719 144.261719 224.292969 158.941406 233.410156 C 159.65625 233.859375 160.410156 234.300781 161.183594 234.730469 L 184.527344 221.246094 Z M 161.199219 237.863281 C 160.964844 237.863281 160.730469 237.804688 160.515625 237.6875 C 159.425781 237.105469 158.378906 236.5 157.398438 235.882812 C 141.136719 225.78125 131.066406 208.351562 130.472656 189.253906 C 130.460938 188.726562 130.734375 188.226562 131.1875 187.957031 C 131.636719 187.683594 132.203125 187.679688 132.664062 187.945312 L 188.171875 219.980469 C 188.625 220.246094 188.902344 220.726562 188.902344 221.246094 C 188.902344 221.769531 188.625 222.25 188.171875 222.511719 L 161.929688 237.664062 C 161.703125 237.800781 161.453125 237.863281 161.199219 237.863281 "/></g><g clip-rule="nonzero" clip-path="url(#clip16)"><path style=" stroke:none;fill-rule:nonzero;fill:rgb(1.179504%,41.178894%,18.429565%);fill-opacity:1;" d="M 133.375 188.355469 L 156.714844 201.828125 L 156.714844 142.949219 C 142.589844 152.695312 133.925781 168.5 133.390625 185.742188 C 133.375 186.3125 133.363281 186.875 133.363281 187.441406 C 133.363281 187.75 133.367188 188.054688 133.375 188.355469 Z M 158.171875 205.8125 C 157.921875 205.8125 157.667969 205.75 157.445312 205.617188 L 131.203125 190.472656 C 130.769531 190.21875 130.492188 189.757812 130.472656 189.253906 C 130.457031 188.65625 130.449219 188.054688 130.449219 187.441406 C 130.449219 186.84375 130.457031 186.25 130.472656 185.648438 C 131.066406 166.542969 141.136719 149.105469 157.40625 139.007812 C 157.855469 138.730469 158.421875 138.71875 158.886719 138.972656 C 159.347656 139.230469 159.632812 139.71875 159.632812 140.25 L 159.632812 204.355469 C 159.632812 204.878906 159.355469 205.359375 158.902344 205.617188 C 158.679688 205.75 158.425781 205.8125 158.171875 205.8125 "/></g><g clip-rule="nonzero" clip-path="url(#clip17)"><path style=" stroke:none;fill-rule:nonzero;fill:rgb(1.179504%,41.178894%,18.429565%);fill-opacity:1;" d="M 164.269531 236.316406 C 171.472656 239.734375 179.4375 241.53125 187.453125 241.53125 C 196.363281 241.53125 205.199219 239.3125 213.003906 235.117188 C 213.777344 234.703125 214.539062 234.277344 215.269531 233.832031 L 215.269531 206.871094 L 188.183594 222.511719 C 188.148438 222.53125 188.117188 222.546875 188.078125 222.566406 Z M 187.453125 244.449219 C 178.066406 244.449219 168.75 242.109375 160.511719 237.6875 C 160.046875 237.4375 159.753906 236.953125 159.746094 236.425781 C 159.734375 235.898438 160.015625 235.402344 160.476562 235.140625 L 186.714844 219.988281 C 186.75 219.964844 186.78125 219.945312 186.816406 219.933594 L 216 203.082031 C 216.449219 202.820312 217.007812 202.820312 217.457031 203.082031 C 217.910156 203.339844 218.1875 203.820312 218.1875 204.347656 L 218.1875 234.644531 C 218.1875 235.148438 217.929688 235.617188 217.507812 235.882812 C 216.507812 236.511719 215.453125 237.117188 214.375 237.691406 C 206.15625 242.109375 196.84375 244.449219 187.453125 244.449219 "/></g><g clip-rule="nonzero" clip-path="url(#clip18)"><path style=" stroke:none;fill-rule:nonzero;fill:rgb(1.179504%,41.178894%,18.429565%);fill-opacity:1;" d="M 190.367188 153.640625 L 241.355469 183.074219 C 239.988281 166.007812 230.632812 150.601562 215.960938 141.488281 C 215.957031 141.488281 215.957031 141.484375 215.953125 141.484375 C 215.234375 141.027344 214.488281 140.585938 213.714844 140.164062 Z M 242.960938 187.144531 C 242.710938 187.144531 242.457031 187.078125 242.230469 186.949219 L 186.722656 154.898438 C 186.273438 154.640625 185.992188 154.160156 185.992188 153.640625 C 185.992188 153.117188 186.273438 152.632812 186.722656 152.375 L 212.964844 137.230469 C 213.402344 136.976562 213.933594 136.96875 214.375 137.203125 C 215.457031 137.777344 216.507812 138.386719 217.5 139.011719 C 233.765625 149.109375 243.828125 166.542969 244.421875 185.640625 C 244.433594 186.167969 244.164062 186.667969 243.707031 186.941406 C 243.480469 187.078125 243.21875 187.144531 242.960938 187.144531 "/></g></g></svg>